# xmcd CD database file
#
# Track frame offsets:
#	150
#	24502
#	59625
#	70237
#	90112
#	105950
#	122165
#	146692
#	173782
#	206167
#
# Disc length: 2984 seconds
#
# Revision: 2
# Processed by: cddbd v1.5.2PL0 Copyright (c) Steve Scherf et al.
# Submitted via: CDex 1.51
#
DISCID=870ba60a
DTITLE=Muddy Waters - Hard Again
DYEAR=1977
DGENRE=Blues
TTITLE0=Mannish Boy
TTITLE1=Bus Driver
TTITLE2=I Want To Be Loved
TTITLE3=Jealous Hearted Man
TTITLE4=I Can't Be Satisfied
TTITLE5=The Blues Had A Baby And They Named It Rock And Roll #2
TTITLE6=Deep Down In Florida
TTITLE7=Crosseyed Cat
TTITLE8=Little Girl
TTITLE9=Walking Through The Park
EXTD=2004 remaster YEAR: 1977
EXTT0=
EXTT1=
EXTT2=
EXTT3=
EXTT4=
EXTT5=
EXTT6=
EXTT7=
EXTT8=
EXTT9=
PLAYORDER=
